<svg width="950" height="950" viewBox="0 0 950 950" fill="none" xmlns="http://www.w3.org/2000/svg">
<rect width="950" height="950" rx="50" fill="white"/>
<path fill-rule="evenodd" clip-rule="evenodd" d="M259 809.125C259 818.445 251.445 826 242.125 826H140.875C131.555 826 124 818.445 124 809.125V140.875C124 131.555 131.555 124 140.875 124H242.125C251.445 124 259 131.555 259 140.875C259 150.195 251.445 157.75 242.125 157.75H157.75V792.25H242.125C251.445 792.25 259 799.805 259 809.125ZM691 140.875C691 131.555 698.555 124 707.875 124H809.125C818.445 124 826 131.555 826 140.875V809.125C826 818.445 818.445 826 809.125 826H707.875C698.555 826 691 818.445 691 809.125C691 799.805 698.555 792.25 707.875 792.25H792.25V157.75H707.875C698.555 157.75 691 150.195 691 140.875ZM493.225 687.593C493.225 687.856 493.219 688.118 493.207 688.38C496.664 694.995 501.876 702.702 508.539 708.94C517.48 717.312 527.639 721.898 539.37 720.173C569.936 715.678 583.882 696.801 586.44 690.955C589.226 684.587 595.63 680.579 602.575 680.857C606.794 681.026 614.731 680.636 623.193 678.726C631.825 676.778 639.324 673.622 644.207 669.412C648.424 665.777 652.472 658.485 655.509 648.566C656.866 644.133 657.869 639.682 658.58 635.633C653.963 634.806 649.156 633.45 644.596 631.278C636.838 627.584 632.472 621.075 630.059 615.568C627.645 610.055 626.528 604.121 626 598.934C625.665 595.638 625.536 592.294 625.552 589.043H548.574C539.255 589.043 531.699 581.487 531.699 572.168C531.699 562.848 539.255 555.293 548.574 555.293H643.074C649.958 555.293 655.88 559.415 658.505 565.326C660.304 568.561 661.056 572.408 660.388 576.343C659.547 581.294 658.913 588.988 659.577 595.52C659.861 598.313 660.324 600.268 660.753 601.468C663.377 602.36 666.982 602.942 671.233 603.055C674.813 603.15 678.124 602.897 680.522 602.586C687.236 597.886 694.575 591.958 700.954 585.318C712.018 573.8 717.097 563.407 716.674 555.521C715.801 539.208 711.86 529.779 707.197 523.217C702.319 516.352 695.803 511.303 686.536 504.668L550.599 504.667C541.28 504.667 533.724 497.112 533.724 487.792V400.043C533.724 390.723 541.28 383.168 550.599 383.168C559.919 383.168 567.474 390.723 567.474 400.043V470.918H690.77C696.239 464.446 702.403 456.052 707.452 446.923C715.114 433.068 718.582 420.457 716.913 411.11C714.283 396.383 706.802 385.112 698.385 377.034C691.494 370.421 684.574 366.515 680.286 364.742C679.059 364.548 677.833 364.215 676.631 363.734C675.303 363.203 672.168 362.284 668.68 362.027C665.432 361.787 663.397 362.226 662.389 362.661C662.188 362.952 661.711 363.77 661.241 365.571C660.429 368.685 660.361 372.219 660.544 374.116C660.597 374.661 660.623 375.203 660.624 375.74C663.591 379.689 665.349 384.598 665.349 389.918C665.349 402.965 654.772 413.543 641.724 413.543C628.677 413.543 618.099 402.965 618.099 389.918C618.099 382.571 621.453 376.007 626.713 371.674C626.745 367.322 627.243 362.195 628.583 357.056C630.496 349.719 634.981 339.257 645.678 333.315C651.244 330.222 657.094 328.859 662.418 328.4C662.046 326.551 661.62 324.665 661.135 322.771C658.528 312.581 654.752 304.274 650.3 299.492C645.892 294.758 638.945 291.15 630.77 288.81C622.707 286.501 615.043 285.884 611.013 285.965C604.247 286.1 598.056 282.181 595.283 276.009C592.409 269.614 586.347 259.126 578.099 249.844C569.644 240.331 560.608 234 552.078 232.328C526.01 227.217 505.641 233.626 493.225 249.518V687.593ZM465.204 733.577C468.93 730.089 472.308 726.358 475.338 722.548C478.368 726.358 481.746 730.089 485.472 733.577C499.301 746.525 519.291 757.239 544.281 753.564C579.063 748.449 600.972 729.698 611.682 714.391C617.354 714.011 623.89 713.168 630.625 711.648C641.928 709.096 655.467 704.265 666.244 694.975C677.687 685.11 684.101 670.464 687.78 658.446C690.321 650.146 691.919 641.886 692.82 634.937C702.814 628.611 714.873 619.546 725.293 608.699C738.09 595.377 751.574 576.07 750.376 553.716C749.225 532.229 743.716 516.345 734.71 503.669C730.358 497.545 725.377 492.47 720.319 488.094C725.998 480.932 731.905 472.445 736.986 463.256C745.861 447.209 753.868 426.07 750.138 405.177C746.017 382.103 734.261 364.687 721.754 352.684C713.922 345.167 705.411 339.408 697.651 335.582C696.953 329.21 695.742 321.871 693.832 314.404C690.69 302.128 685.129 287.373 675.001 276.494C664.829 265.569 651.413 259.614 640.059 256.363C633.435 254.467 626.957 253.331 621.274 252.738C616.89 244.925 610.819 235.856 603.326 227.424C592.734 215.506 577.583 202.936 558.572 199.209C527.523 193.121 497.028 198.863 475.338 219.143C453.647 198.863 423.153 193.121 392.103 199.209C373.093 202.936 357.942 215.506 347.35 227.424C339.856 235.856 333.786 244.925 329.402 252.738C323.719 253.331 317.24 254.467 310.617 256.363C299.263 259.614 285.847 265.569 275.675 276.494C265.547 287.373 259.985 302.128 256.844 314.404C254.933 321.871 253.723 329.21 253.025 335.582C245.264 339.408 236.754 345.167 228.922 352.684C216.415 364.687 204.658 382.103 200.538 405.177C196.807 426.07 204.814 447.209 213.689 463.256C218.689 472.297 224.487 480.658 230.082 487.747C224.676 492.06 219.163 497.122 214.507 503.131C204.313 516.286 198.529 533.163 200.328 555.946C200.494 558.057 200.705 560.113 200.958 562.117C200.955 562.225 200.952 562.333 200.95 562.441C200.625 582.277 213.774 617.706 257.955 635.687C258.872 642.477 260.445 650.443 262.895 658.446C266.575 670.464 272.989 685.11 284.432 694.975C295.209 704.265 308.748 709.096 320.051 711.648C326.786 713.168 333.321 714.011 338.993 714.391C349.704 729.698 371.612 748.449 406.395 753.564C431.384 757.239 451.375 746.525 465.204 733.577ZM292.862 639.592C293.478 642.502 294.24 645.539 295.167 648.566C298.203 658.485 302.252 665.777 306.469 669.412C311.352 673.622 318.85 676.778 327.482 678.726C335.944 680.636 343.881 681.026 348.101 680.857C355.045 680.579 361.45 684.587 364.235 690.955C366.793 696.801 380.74 715.678 411.306 720.173C423.036 721.898 433.196 717.312 442.137 708.94C448.8 702.702 454.012 694.995 457.469 688.38C457.456 688.118 457.45 687.856 457.45 687.593V249.518C445.035 233.626 424.666 227.217 398.597 232.328C390.068 234 381.031 240.331 372.577 249.844C364.328 259.126 358.266 269.614 355.393 276.009C352.62 282.181 346.428 286.1 339.663 285.965C335.633 285.884 327.969 286.501 319.906 288.81C311.73 291.15 304.784 294.758 300.376 299.492C295.924 304.274 292.148 312.581 289.54 322.771C288.869 325.395 288.311 328.002 287.851 330.518H311.649C320.969 330.518 328.524 338.073 328.524 347.393C328.524 356.712 320.969 364.268 311.649 364.268H271.609C267.504 365.751 259.881 369.751 252.291 377.034C243.874 385.112 236.392 396.383 233.763 411.11C232.093 420.457 235.561 433.068 243.224 446.923C249.023 457.409 256.294 466.925 262.293 473.672L391.45 474.868C392.021 474.873 392.584 474.907 393.14 474.968H408.174V491.843V606.593V621.151C411.951 625.339 414.249 630.885 414.249 636.968C414.249 650.015 403.672 660.593 390.624 660.593C377.577 660.593 366.999 650.015 366.999 636.968C366.999 630.19 369.853 624.08 374.424 619.771V606.593V508.462L260.283 507.405C252.099 513.211 245.916 517.697 241.184 523.803C236.459 529.902 232.792 538.336 233.973 553.29C235.674 574.833 243.089 585.489 250.77 592.188C254.955 595.838 259.738 598.751 265.093 601.539C267.289 602.681 269.458 603.742 271.735 604.849C272.894 605.304 274.088 605.745 275.318 606.171C281.6 608.346 286.924 607.12 293.54 602.841C297.037 600.579 300.504 597.681 304.278 594.293C305.138 593.521 306.071 592.669 307.047 591.777C307.721 591.162 308.415 590.528 309.122 589.887C309.008 588.946 308.949 587.989 308.949 587.018C308.949 573.97 319.527 563.393 332.574 563.393C345.622 563.393 356.199 573.97 356.199 587.018C356.199 598.482 348.034 608.038 337.202 610.19L337.151 610.231C337.132 610.247 337.113 610.262 337.094 610.277L337.041 610.32C335.079 611.889 333.153 613.649 330.689 615.9L330.689 615.9L330.688 615.9L330.687 615.901C329.536 616.953 328.268 618.111 326.825 619.407C322.71 623.101 317.655 627.437 311.871 631.179C306.402 634.716 300.026 637.863 292.862 639.592ZM558.024 335.243C571.072 335.243 581.649 324.665 581.649 311.618C581.649 298.57 571.072 287.993 558.024 287.993C544.977 287.993 534.399 298.57 534.399 311.618C534.399 324.665 544.977 335.243 558.024 335.243ZM558.024 660.593C571.072 660.593 581.649 650.015 581.649 636.968C581.649 623.92 571.072 613.343 558.024 613.343C544.977 613.343 534.399 623.92 534.399 636.968C534.399 650.015 544.977 660.593 558.024 660.593ZM661.181 602.445C661.181 602.445 661.174 602.434 661.16 602.409C661.174 602.432 661.182 602.444 661.181 602.445ZM295.449 400.717C286.13 400.717 278.574 408.273 278.574 417.592C278.574 426.912 286.13 434.467 295.449 434.467H396.667L278.574 417.592L396.699 434.467C404.854 434.467 411.658 428.683 413.231 420.993C413.456 419.895 413.574 418.757 413.574 417.592L413.574 309.593C413.574 300.273 406.019 292.718 396.699 292.718C387.38 292.718 379.824 300.273 379.824 309.593V400.717H295.449Z" fill="#05193B"/>
</svg>
