<svg width="950" height="950" viewBox="0 0 950 950" fill="none" xmlns="http://www.w3.org/2000/svg">
<rect width="950" height="950" rx="50" fill="black"/>
<path fill-rule="evenodd" clip-rule="evenodd" d="M235 846.25C235 856.605 226.605 865 216.25 865H103.75C93.3947 865 85 856.605 85 846.25V103.75C85 93.3947 93.3947 85 103.75 85H216.25C226.605 85 235 93.3947 235 103.75C235 114.105 226.605 122.5 216.25 122.5H122.5V827.5H216.25C226.605 827.5 235 835.895 235 846.25ZM715 103.75C715 93.3947 723.395 85 733.75 85H846.25C856.605 85 865 93.3947 865 103.75V846.25C865 856.605 856.605 865 846.25 865H733.75C723.395 865 715 856.605 715 846.25C715 835.895 723.395 827.5 733.75 827.5H827.5V122.5H733.75C723.395 122.5 715 114.105 715 103.75ZM495.249 711.56C495.245 711.736 495.24 711.911 495.232 712.087C499.072 719.437 504.864 728 512.267 734.932C522.202 744.233 533.49 749.329 546.524 747.412C580.486 742.418 595.982 721.444 598.824 714.947C601.919 707.873 609.035 703.419 616.751 703.728C621.44 703.915 630.259 703.483 639.661 701.36C649.252 699.195 657.583 695.689 663.009 691.011C667.695 686.972 672.193 678.87 675.567 667.849C677.075 662.924 678.189 657.978 678.979 653.48C673.849 652.561 668.508 651.054 663.441 648.641C654.822 644.537 649.97 637.305 647.29 631.185C644.607 625.06 643.366 618.466 642.78 612.703C642.408 609.04 642.263 605.325 642.282 601.712H556.751C546.396 601.712 538.001 593.318 538.001 582.962C538.001 572.607 546.396 564.212 556.751 564.212H661.751C669.4 564.212 675.979 568.793 678.896 575.36C680.895 578.956 681.73 583.23 680.988 587.601C680.054 593.103 679.35 601.651 680.088 608.91C680.403 612.013 680.917 614.185 681.394 615.519C684.309 616.51 688.315 617.156 693.039 617.282C697.016 617.387 700.693 617.106 703.358 616.761C710.819 611.539 718.974 604.952 726.061 597.574C738.355 584.776 743.998 573.227 743.529 564.466C742.558 546.34 738.179 535.864 732.999 528.573C727.578 520.944 720.339 515.335 710.042 507.962H559.001C548.646 507.962 540.251 499.568 540.251 489.212V391.712C540.251 381.357 548.646 372.962 559.001 372.962C569.356 372.962 577.751 381.357 577.751 391.712V470.462H714.745C720.822 463.271 727.672 453.945 733.282 443.801C741.795 428.407 745.648 414.394 743.794 404.009C740.872 387.646 732.559 375.123 723.207 366.147C715.553 358.802 707.868 354.463 703.103 352.491C701.737 352.276 700.374 351.906 699.036 351.371C697.561 350.781 694.077 349.759 690.201 349.474C686.593 349.207 684.332 349.695 683.212 350.179C682.988 350.502 682.458 351.411 681.937 353.411C681.034 356.872 680.958 360.799 681.162 362.906C681.221 363.512 681.25 364.113 681.251 364.71C684.547 369.097 686.501 374.552 686.501 380.462C686.501 394.96 674.748 406.712 660.251 406.712C645.753 406.712 634.001 394.96 634.001 380.462C634.001 372.299 637.727 365.006 643.571 360.192C643.607 355.357 644.161 349.66 645.65 343.95C647.775 335.799 652.759 324.174 664.644 317.571C670.828 314.135 677.328 312.62 683.244 312.111C682.83 310.056 682.357 307.96 681.818 305.855C678.921 294.533 674.726 285.302 669.779 279.989C664.881 274.729 657.163 270.721 648.079 268.12C639.12 265.555 630.604 264.869 626.127 264.959C618.61 265.109 611.73 260.755 608.649 253.897C605.456 246.791 598.721 235.137 589.556 224.824C580.162 214.255 570.121 207.221 560.644 205.362C531.679 199.683 509.047 206.804 495.252 224.463V711.213C495.252 711.328 495.251 711.444 495.249 711.56ZM464.117 762.306C468.257 758.43 472.01 754.285 475.377 750.052C478.744 754.285 482.497 758.43 486.637 762.306C502.002 776.692 524.214 788.596 551.98 784.513C590.627 778.83 614.97 757.995 626.871 740.988C633.173 740.566 640.435 739.629 647.918 737.94C660.477 735.105 675.521 729.737 687.495 719.414C700.209 708.454 707.336 692.181 711.424 678.827C714.247 669.605 716.023 660.427 717.024 652.706C728.129 645.677 741.527 635.605 753.105 623.552C767.324 608.75 782.306 587.298 780.975 562.46C779.696 538.585 773.575 520.937 763.568 506.853C758.733 500.048 753.198 494.409 747.578 489.547C753.889 481.589 760.451 472.159 766.097 461.95C775.959 444.119 784.855 420.631 780.71 397.417C776.132 371.779 763.069 352.428 749.172 339.091C740.47 330.74 731.014 324.34 722.391 320.089C721.616 313.009 720.271 304.854 718.148 296.558C714.657 282.918 708.478 266.523 697.225 254.436C685.923 242.297 671.016 235.68 658.4 232.068C651.041 229.961 643.843 228.7 637.528 228.04C632.657 219.36 625.912 209.282 617.586 199.914C605.817 186.671 588.983 172.705 567.86 168.563C533.361 161.799 499.478 168.18 475.377 190.713C451.276 168.18 417.393 161.799 382.894 168.563C361.771 172.705 344.937 186.671 333.168 199.914C324.842 209.282 318.097 219.36 313.225 228.04C306.911 228.7 299.713 229.961 292.354 232.068C279.738 235.68 264.831 242.297 253.529 254.436C242.276 266.523 236.096 282.918 232.606 296.558C230.483 304.854 229.138 313.009 228.363 320.089C219.74 324.34 210.284 330.74 201.582 339.091C187.684 352.428 174.622 371.779 170.044 397.417C165.898 420.631 174.795 444.119 184.657 461.95C190.212 471.994 196.654 481.285 202.87 489.161C196.864 493.954 190.738 499.578 185.565 506.254C174.238 520.871 167.812 539.624 169.81 564.938C169.995 567.283 170.23 569.569 170.511 571.796C170.507 571.915 170.504 572.035 170.502 572.155C170.14 594.195 184.75 633.561 233.841 653.54C234.86 661.083 236.607 669.935 239.33 678.827C243.418 692.181 250.545 708.454 263.259 719.414C275.233 729.737 290.277 735.105 302.836 737.94C310.319 739.629 317.581 740.566 323.883 740.988C335.784 757.995 360.126 778.83 398.774 784.513C426.54 788.596 448.752 776.692 464.117 762.306ZM272.626 657.878C273.311 661.112 274.157 664.485 275.187 667.849C278.561 678.87 283.059 686.972 287.745 691.011C293.171 695.689 301.502 699.195 311.093 701.36C320.495 703.483 329.314 703.915 334.003 703.728C341.719 703.419 348.835 707.873 351.93 714.947C354.772 721.444 370.268 742.418 404.23 747.412C417.264 749.329 428.552 744.233 438.487 734.932C445.89 728 451.681 719.437 455.522 712.087C455.509 711.796 455.502 711.505 455.502 711.213V224.463C441.707 206.804 419.074 199.683 390.11 205.362C380.633 207.221 370.592 214.255 361.198 224.824C352.033 235.137 345.298 246.791 342.105 253.897C339.024 260.755 332.144 265.109 324.627 264.959C320.149 264.869 311.634 265.555 302.675 268.12C293.591 270.721 285.873 274.729 280.975 279.989C276.028 285.302 271.832 294.533 268.935 305.855C268.189 308.77 267.569 311.667 267.058 314.462H293.501C303.856 314.462 312.251 322.857 312.251 333.212C312.251 343.568 303.856 351.962 293.501 351.962H249.01C244.449 353.611 235.979 358.055 227.547 366.147C218.194 375.123 209.882 387.646 206.96 404.009C205.105 414.394 208.959 428.407 217.472 443.801C223.916 455.452 231.995 466.026 238.66 473.523L382.168 474.852C382.802 474.858 383.429 474.895 384.046 474.962H400.751V493.712V621.212V637.389C404.947 642.042 407.501 648.204 407.501 654.962C407.501 669.46 395.748 681.212 381.251 681.212C366.753 681.212 355.001 669.46 355.001 654.962C355.001 647.432 358.172 640.643 363.251 635.856V621.212V512.179L236.426 511.004C227.333 517.455 220.464 522.44 215.206 529.224C209.956 536 205.882 545.372 207.194 561.987C209.083 585.923 217.323 597.764 225.858 605.207C230.507 609.262 235.822 612.5 241.772 615.596C244.213 616.867 246.625 618.046 249.157 619.278C250.443 619.782 251.768 620.271 253.132 620.744C260.113 623.16 266.029 621.799 273.38 617.044C277.265 614.531 281.118 611.311 285.311 607.546C286.259 606.694 287.287 605.756 288.363 604.773L288.373 604.765L288.381 604.757L288.387 604.751C289.136 604.067 289.908 603.362 290.693 602.651C290.566 601.606 290.501 600.542 290.501 599.462C290.501 584.965 302.253 573.212 316.751 573.212C331.248 573.212 343.001 584.965 343.001 599.462C343.001 612.2 333.928 622.819 321.893 625.209L321.83 625.26C321.791 625.292 321.753 625.323 321.714 625.354M272.626 657.878C280.586 655.957 287.671 652.461 293.747 648.531ZM293.747 648.531C300.174 644.373 305.79 639.555 310.363 635.45ZM310.363 635.45C311.967 634.01 313.376 632.723 314.655 631.554ZM567.251 319.712C581.748 319.712 593.501 307.96 593.501 293.462C593.501 278.965 581.748 267.212 567.251 267.212C552.754 267.212 541.001 278.965 541.001 293.462C541.001 307.96 552.754 319.712 567.251 319.712ZM567.251 681.212C581.748 681.212 593.501 669.46 593.501 654.962C593.501 640.465 581.748 628.712 567.251 628.712C552.754 628.712 541.001 640.465 541.001 654.962C541.001 669.46 552.754 681.212 567.251 681.212ZM681.87 616.604C681.87 616.604 681.861 616.592 681.846 616.565C681.862 616.589 681.87 616.603 681.87 616.604ZM275.501 392.462C265.146 392.462 256.751 400.857 256.751 411.212C256.751 421.568 265.146 429.962 275.501 429.962H388.001C398.316 429.962 406.685 421.633 406.751 411.334C406.751 411.293 406.751 411.253 406.751 411.212L406.751 291.212C406.751 280.857 398.356 272.462 388.001 272.462C377.646 272.462 369.251 280.857 369.251 291.212V392.462H275.501Z" fill="white"/>
</svg>
