<svg width="133" height="37" viewBox="0 0 133 37" fill="none" xmlns="http://www.w3.org/2000/svg">
<path fill-rule="evenodd" clip-rule="evenodd" d="M7.03125 35.6836C7.03125 36.169 6.63775 36.5625 6.15234 36.5625H0.878906C0.3935 36.5625 0 36.169 0 35.6836V0.878906C0 0.393501 0.3935 0 0.878906 0H6.15234C6.63775 0 7.03125 0.393501 7.03125 0.878906C7.03125 1.36431 6.63775 1.75781 6.15234 1.75781H1.75781V34.8047H6.15234C6.63775 34.8047 7.03125 35.1982 7.03125 35.6836ZM29.5312 0.878906C29.5312 0.3935 29.9247 0 30.4102 0H35.6836C36.169 0 36.5625 0.3935 36.5625 0.878906V35.6836C36.5625 36.169 36.169 36.5625 35.6836 36.5625H30.4102C29.9247 36.5625 29.5312 36.169 29.5312 35.6836C29.5312 35.1982 29.9247 34.8047 30.4102 34.8047H34.8047V1.75781H30.4102C29.9247 1.75781 29.5312 1.36431 29.5312 0.878906ZM19.23 29.3833C19.2298 29.387 19.2297 29.3907 19.2295 29.3944C19.4095 29.739 19.681 30.1404 20.028 30.4653C20.4937 30.9013 21.0229 31.1402 21.6338 31.0503C23.2258 30.8162 23.9522 29.833 24.0854 29.5285C24.2305 29.1969 24.5641 28.9881 24.9257 29.0026C25.1455 29.0114 25.5589 28.9911 25.9996 28.8916C26.4492 28.7901 26.8397 28.6258 27.0941 28.4065C27.3137 28.2172 27.5246 27.8374 27.6827 27.3208C27.7534 27.0901 27.8055 26.8585 27.8426 26.6478C27.6022 26.6047 27.3519 26.534 27.1145 26.421C26.7105 26.2286 26.483 25.8896 26.3574 25.6027C26.2316 25.3156 26.1734 25.0065 26.146 24.7364C26.1285 24.5647 26.1218 24.3905 26.1226 24.2212H22.1133C21.6279 24.2212 21.2344 23.8277 21.2344 23.3423C21.2344 22.8569 21.6279 22.4634 22.1133 22.4634H27.0352C27.3934 22.4634 27.7016 22.6777 27.8385 22.9851C27.9325 23.1538 27.9718 23.3545 27.937 23.5597C27.8932 23.8176 27.8602 24.2183 27.8948 24.5586C27.9096 24.704 27.9336 24.8059 27.956 24.8684C28.0927 24.9148 28.2804 24.9451 28.5019 24.951C28.6877 24.9559 28.8596 24.9428 28.9844 24.9267C29.3344 24.6818 29.7171 24.3728 30.0497 24.0266C30.6259 23.4267 30.8904 22.8854 30.8684 22.4747C30.8229 21.6251 30.6177 21.134 30.3748 20.7922C30.1209 20.4348 29.7818 20.1719 29.2995 19.8267H22.2187C21.7333 19.8267 21.3398 19.4332 21.3398 18.9478V14.3774C21.3398 13.892 21.7333 13.4985 22.2187 13.4985C22.7042 13.4985 23.0977 13.892 23.0977 14.3774V18.0688H29.5187C29.8037 17.7317 30.125 17.2943 30.3881 16.8185C30.7872 16.0969 30.9678 15.4401 30.8809 14.9533C30.7439 14.1863 30.3543 13.5992 29.9158 13.1785C29.5554 12.8325 29.1934 12.6288 28.9703 12.537C28.9073 12.5269 28.8444 12.5097 28.7826 12.485C28.7135 12.4574 28.5502 12.4095 28.3685 12.3961C28.1994 12.3836 28.0934 12.4065 28.0408 12.4291C28.0304 12.4443 28.0055 12.4869 27.9811 12.5807C27.9388 12.7429 27.9352 12.9269 27.9448 13.0257C27.9476 13.0545 27.9489 13.083 27.9489 13.1113C28.1036 13.317 28.1953 13.5729 28.1953 13.8501C28.1953 14.5297 27.6444 15.0806 26.9648 15.0806C26.2853 15.0806 25.7344 14.5297 25.7344 13.8501C25.7344 13.4676 25.9089 13.1258 26.1827 12.9001C26.1843 12.6732 26.2102 12.4055 26.2801 12.1372C26.3798 11.7551 26.6134 11.2102 27.1705 10.9007C27.4604 10.7396 27.7651 10.6686 28.0424 10.6447C28.0231 10.5486 28.0009 10.4507 27.9758 10.3523C27.84 9.82158 27.6433 9.3889 27.4114 9.13985C27.1818 8.89326 26.8201 8.70538 26.3942 8.58347C25.9743 8.46324 25.5751 8.4311 25.3652 8.4353C25.0129 8.44235 24.6904 8.23824 24.5459 7.91676C24.3963 7.58368 24.0806 7.03742 23.6509 6.554C23.2106 6.05853 22.74 5.72882 22.2957 5.64171C20.938 5.37549 19.8771 5.7093 19.2305 6.53704V29.3534C19.2305 29.3634 19.2303 29.3733 19.23 29.3833ZM17.771 31.7485C17.9651 31.5668 18.141 31.3724 18.2988 31.174C18.4566 31.3724 18.6326 31.5668 18.8266 31.7485C19.5469 32.4228 20.5881 32.9808 21.8896 32.7894C23.7012 32.523 24.8423 31.5464 25.4001 30.7491C25.6955 30.7294 26.0359 30.6855 26.3867 30.6063C26.9754 30.4734 27.6806 30.2218 28.2418 29.7379C28.8378 29.2241 29.1719 28.4613 29.3635 27.8354C29.4959 27.4031 29.5791 26.9728 29.626 26.6109C30.1466 26.2815 30.7746 25.8093 31.3173 25.2443C31.9838 24.5505 32.6861 23.5449 32.6237 22.3806C32.5638 21.2615 32.2768 20.4343 31.8078 19.7741C31.5811 19.4551 31.3217 19.1908 31.0583 18.9629C31.3541 18.5898 31.6617 18.1478 31.9263 17.6692C32.3886 16.8334 32.8056 15.7324 32.6113 14.6443C32.3967 13.4425 31.7844 12.5354 31.133 11.9102C30.7251 11.5188 30.2818 11.2188 29.8776 11.0195C29.8413 10.6876 29.7782 10.3054 29.6787 9.91653C29.5151 9.27711 29.2255 8.50862 28.698 7.94204C28.1682 7.37301 27.4694 7.06285 26.878 6.89355C26.5331 6.79479 26.1957 6.73564 25.8997 6.70475C25.6713 6.29783 25.3551 5.82545 24.9649 5.3863C24.4132 4.76555 23.6241 4.11089 22.634 3.91675C21.0168 3.59966 19.4285 3.89876 18.2988 4.95502C17.1691 3.89876 15.5808 3.59966 13.9637 3.91675C12.9736 4.11089 12.1844 4.76555 11.6328 5.3863C11.2425 5.82545 10.9263 6.29783 10.698 6.70475C10.402 6.73564 10.0646 6.79479 9.71962 6.89355C9.12826 7.06285 8.42949 7.37301 7.8997 7.94204C7.3722 8.50862 7.08255 9.27711 6.91893 9.91653C6.81943 10.3054 6.75637 10.6876 6.72003 11.0195C6.31582 11.2188 5.87259 11.5188 5.46467 11.9102C4.81324 12.5354 4.20094 13.4425 3.98634 14.6443C3.79202 15.7324 4.20906 16.8334 4.67131 17.6692C4.9317 18.1401 5.23368 18.5756 5.52508 18.9448C5.24354 19.1694 4.95637 19.4331 4.71388 19.746C4.18293 20.4312 3.8817 21.3102 3.97538 22.4968C3.98412 22.6075 3.99519 22.7153 4.0085 22.8204L4.00812 22.8357C3.99118 23.8688 4.67598 25.7139 6.97687 26.6505C7.02465 27.004 7.10656 27.4187 7.2341 27.8354C7.42575 28.4613 7.75983 29.2241 8.35581 29.7379C8.91709 30.2218 9.62227 30.4734 10.211 30.6063C10.5617 30.6855 10.9021 30.7294 11.1975 30.7491C11.7554 31.5464 12.8965 32.523 14.7081 32.7894C16.0096 32.9808 17.0508 32.4228 17.771 31.7485ZM8.79501 26.854C8.82709 27.0054 8.86671 27.1633 8.91491 27.3208C9.07307 27.8374 9.28392 28.2172 9.50356 28.4065C9.7579 28.6258 10.1484 28.7901 10.598 28.8916C11.0387 28.9911 11.4521 29.0114 11.6719 29.0026C12.0336 28.9881 12.3672 29.1969 12.5122 29.5285C12.6455 29.833 13.3718 30.8162 14.9638 31.0503C15.5748 31.1402 16.1039 30.9013 16.5696 30.4653C16.9166 30.1404 17.1881 29.739 17.3681 29.3944C17.3675 29.3808 17.3672 29.3671 17.3672 29.3534V6.53704C16.7205 5.7093 15.6596 5.37549 14.3019 5.64171C13.8577 5.72882 13.387 6.05853 12.9467 6.554C12.5171 7.03742 12.2014 7.58368 12.0517 7.91676C11.9073 8.23824 11.5848 8.44235 11.2324 8.4353C11.0225 8.4311 10.6234 8.46324 10.2034 8.58347C9.7776 8.70538 9.41582 8.89326 9.18623 9.13985C8.95436 9.3889 8.75768 9.82158 8.62188 10.3523C8.58686 10.4891 8.55774 10.6251 8.53377 10.7563H9.77343C10.2588 10.7563 10.6523 11.1498 10.6523 11.6353C10.6523 12.1207 10.2588 12.5142 9.77343 12.5142H7.68632C7.47212 12.5919 7.07608 12.8001 6.6818 13.1785C6.2434 13.5992 5.85374 14.1863 5.71678 14.9533C5.62985 15.4401 5.81046 16.0969 6.20955 16.8185C6.51176 17.365 6.89073 17.8609 7.20325 18.2123L13.9297 18.2746C13.9594 18.2749 13.9888 18.2766 14.0177 18.2798H14.8008V19.1587V25.1353V25.8935C14.9975 26.1116 15.1172 26.4005 15.1172 26.7173C15.1172 27.3969 14.5663 27.9478 13.8867 27.9478C13.2071 27.9478 12.6562 27.3969 12.6562 26.7173C12.6562 26.3643 12.8049 26.046 13.043 25.8217V25.1353V20.0243L7.0972 19.9692C6.67136 20.2714 6.34963 20.5049 6.10333 20.8227C5.85721 21.1403 5.66625 21.5796 5.72774 22.3585C5.81632 23.4805 6.20255 24.0355 6.6026 24.3844C6.82054 24.5745 7.06969 24.7263 7.3486 24.8714C7.46455 24.9318 7.57906 24.9877 7.69949 25.0463C7.75839 25.0693 7.81902 25.0917 7.88144 25.1133C8.20866 25.2266 8.48595 25.1627 8.83052 24.9398C9.01264 24.822 9.19324 24.6711 9.3898 24.4946C9.43459 24.4544 9.48315 24.4101 9.534 24.3636L9.53401 24.3636C9.56902 24.3317 9.60512 24.2987 9.64182 24.2654C9.63587 24.2163 9.63281 24.1664 9.63281 24.1157C9.63281 23.4362 10.1837 22.8853 10.8633 22.8853C11.5428 22.8853 12.0937 23.4362 12.0937 24.1157C12.0937 24.7127 11.6686 25.2104 11.1046 25.3225L11.0962 25.3294C10.994 25.4111 10.8937 25.5028 10.7653 25.62L10.7653 25.62C10.7054 25.6748 10.6393 25.7351 10.5641 25.8027C10.3498 25.9951 10.0865 26.2209 9.78523 26.4158C9.50036 26.6001 9.16823 26.764 8.79501 26.854ZM22.6055 11.0024C23.285 11.0024 23.8359 10.4515 23.8359 9.77197C23.8359 9.0924 23.285 8.5415 22.6055 8.5415C21.9259 8.5415 21.375 9.0924 21.375 9.77197C21.375 10.4515 21.9259 11.0024 22.6055 11.0024ZM22.6055 27.9478C23.285 27.9478 23.8359 27.3969 23.8359 26.7173C23.8359 26.0377 23.285 25.4868 22.6055 25.4868C21.9259 25.4868 21.375 26.0377 21.375 26.7173C21.375 27.3969 21.9259 27.9478 22.6055 27.9478ZM8.92968 14.4126C8.44428 14.4126 8.05078 14.8061 8.05078 15.2915C8.05078 15.7769 8.44428 16.1704 8.92968 16.1704H14.2018H14.2031C14.6866 16.1704 15.079 15.78 15.082 15.2972L15.082 15.2915V9.6665C15.082 9.1811 14.6885 8.7876 14.2031 8.7876C13.7177 8.7876 13.3242 9.1811 13.3242 9.6665V14.4126H8.92968Z" fill="#05193B"/>
<path d="M41.3533 10.8984V9.91406L41.5387 9.90447C41.7901 9.88956 41.9893 9.79901 42.1364 9.63281C42.2855 9.46662 42.3952 9.19922 42.4656 8.83061C42.538 8.462 42.5859 7.96768 42.6094 7.34766L42.718 4.35298H47.0071V10.8984H45.8469V5.32777H43.8239L43.7216 7.7152C43.6918 8.43111 43.6129 9.0245 43.4851 9.49538C43.3594 9.96626 43.1527 10.3178 42.8651 10.5501C42.5795 10.7823 42.1822 10.8984 41.6729 10.8984H41.3533ZM49.6614 10.9975C49.3503 10.9975 49.0701 10.9421 48.8208 10.8313C48.5737 10.7184 48.3777 10.5522 48.2328 10.3327C48.09 10.1133 48.0186 9.84268 48.0186 9.52095C48.0186 9.24396 48.0698 9.01491 48.1721 8.83381C48.2743 8.6527 48.4139 8.50781 48.5907 8.39915C48.7676 8.29048 48.9668 8.20845 49.1884 8.15305C49.4121 8.09553 49.6433 8.05398 49.8819 8.02841C50.1696 7.99858 50.4029 7.97195 50.5819 7.94851C50.7608 7.92294 50.8908 7.88459 50.9718 7.83345C51.0549 7.78018 51.0964 7.69815 51.0964 7.58736V7.56818C51.0964 7.32741 51.025 7.14098 50.8823 7.00888C50.7395 6.87678 50.5339 6.81072 50.2654 6.81072C49.9821 6.81072 49.7573 6.87251 49.5911 6.99609C49.427 7.11967 49.3162 7.26562 49.2587 7.43395L48.1784 7.28054C48.2637 6.98224 48.4043 6.73295 48.6003 6.53267C48.7963 6.33026 49.036 6.17898 49.3194 6.07884C49.6028 5.97656 49.916 5.92543 50.2591 5.92543C50.4956 5.92543 50.731 5.95312 50.9654 6.00852C51.1998 6.06392 51.4139 6.15554 51.6078 6.28338C51.8017 6.40909 51.9572 6.58061 52.0744 6.79794C52.1937 7.01527 52.2534 7.28693 52.2534 7.61293V10.8984H51.1412V10.2241H51.1028C51.0325 10.3604 50.9334 10.4883 50.8056 10.6076C50.6799 10.7248 50.5211 10.8196 50.3294 10.892C50.1397 10.9624 49.9171 10.9975 49.6614 10.9975ZM49.9618 10.1474C50.1941 10.1474 50.3954 10.1016 50.5659 10.0099C50.7363 9.91619 50.8674 9.79261 50.959 9.6392C51.0527 9.4858 51.0996 9.31854 51.0996 9.13743V8.55895C51.0634 8.58878 51.0016 8.61648 50.9142 8.64205C50.829 8.66761 50.7331 8.68999 50.6266 8.70916C50.5201 8.72834 50.4146 8.74538 50.3102 8.7603C50.2058 8.77521 50.1152 8.788 50.0385 8.79865C49.8659 8.82209 49.7115 8.86044 49.5751 8.91371C49.4387 8.96697 49.3311 9.04155 49.2523 9.13743C49.1735 9.23118 49.1341 9.35263 49.1341 9.50178C49.1341 9.71484 49.2118 9.87571 49.3674 9.98438C49.5229 10.093 49.7211 10.1474 49.9618 10.1474ZM57.351 4.17401L57.7537 4.92188C57.611 5.04545 57.4512 5.13494 57.2743 5.19034C57.0975 5.24574 56.8897 5.28196 56.6511 5.29901C56.4146 5.31392 56.1333 5.32457 55.8074 5.33097C55.4409 5.33949 55.1415 5.40874 54.9093 5.53871C54.677 5.66868 54.4991 5.86577 54.3755 6.12997C54.252 6.39205 54.171 6.72656 54.1326 7.13352H54.187C54.3404 6.8331 54.5556 6.60405 54.8326 6.44638C55.1096 6.28871 55.4345 6.20987 55.8074 6.20987C56.2143 6.20987 56.5733 6.30149 56.8844 6.48473C57.1976 6.66584 57.4416 6.92898 57.6163 7.27415C57.7931 7.61932 57.8816 8.03693 57.8816 8.52699C57.8816 9.03196 57.7868 9.46982 57.5971 9.84055C57.4075 10.2092 57.138 10.4936 56.7885 10.6939C56.4412 10.8942 56.0289 10.9943 55.5517 10.9943C55.0765 10.9943 54.6632 10.891 54.3116 10.6843C53.9622 10.4755 53.6916 10.1676 53.4998 9.76065C53.3102 9.35156 53.2154 8.84766 53.2154 8.24893V7.80788C53.2154 6.65305 53.4306 5.79119 53.861 5.2223C54.2914 4.65341 54.9295 4.36364 55.7754 4.35298C56.0268 4.34872 56.2516 4.34766 56.4498 4.34979C56.65 4.35192 56.8248 4.34233 56.9739 4.32102C57.123 4.29972 57.2488 4.25071 57.351 4.17401ZM55.5581 10.0675C55.7946 10.0675 55.9991 10.0067 56.1717 9.8853C56.3443 9.76172 56.4764 9.587 56.568 9.36115C56.6618 9.1353 56.7086 8.8679 56.7086 8.55895C56.7086 8.25426 56.6618 7.99538 56.568 7.78232C56.4743 7.56712 56.3411 7.40305 56.1685 7.29013C55.9959 7.1772 55.7903 7.12074 55.5517 7.12074C55.3727 7.12074 55.2118 7.1527 55.0691 7.21662C54.9263 7.28054 54.8049 7.37429 54.7047 7.49787C54.6046 7.62145 54.5279 7.77166 54.4746 7.94851C54.4213 8.12535 54.3926 8.32884 54.3883 8.55895C54.3883 9.02131 54.4927 9.38885 54.7015 9.66158C54.9103 9.93217 55.1958 10.0675 55.5581 10.0675ZM61.0073 10.9943C60.5279 10.9943 60.1124 10.8888 59.7608 10.6779C59.4093 10.467 59.1365 10.1719 58.9426 9.79261C58.7509 9.41335 58.655 8.97017 58.655 8.46307C58.655 7.95597 58.7509 7.51172 58.9426 7.13033C59.1365 6.74893 59.4093 6.45277 59.7608 6.24183C60.1124 6.03089 60.5279 5.92543 61.0073 5.92543C61.4867 5.92543 61.9022 6.03089 62.2537 6.24183C62.6053 6.45277 62.877 6.74893 63.0687 7.13033C63.2626 7.51172 63.3596 7.95597 63.3596 8.46307C63.3596 8.97017 63.2626 9.41335 63.0687 9.79261C62.877 10.1719 62.6053 10.467 62.2537 10.6779C61.9022 10.8888 61.4867 10.9943 61.0073 10.9943ZM61.0137 10.0675C61.2736 10.0675 61.4909 9.99609 61.6657 9.85334C61.8404 9.70845 61.9703 9.51456 62.0556 9.27166C62.1429 9.02876 62.1866 8.75817 62.1866 8.45987C62.1866 8.15945 62.1429 7.88778 62.0556 7.64489C61.9703 7.39986 61.8404 7.2049 61.6657 7.06001C61.4909 6.91513 61.2736 6.84268 61.0137 6.84268C60.7473 6.84268 60.5257 6.91513 60.3489 7.06001C60.1742 7.2049 60.0431 7.39986 59.9558 7.64489C59.8706 7.88778 59.8279 8.15945 59.8279 8.45987C59.8279 8.75817 59.8706 9.02876 59.9558 9.27166C60.0431 9.51456 60.1742 9.70845 60.3489 9.85334C60.5257 9.99609 60.7473 10.0675 61.0137 10.0675ZM64.3415 12.7393V5.98935H65.4793V6.80114H65.5464C65.6061 6.68182 65.6903 6.55504 65.7989 6.42081C65.9076 6.28445 66.0546 6.16832 66.24 6.07244C66.4253 5.97443 66.6618 5.92543 66.9495 5.92543C67.3287 5.92543 67.6707 6.02237 67.9754 6.21626C68.2822 6.40803 68.5251 6.69247 68.7041 7.0696C68.8852 7.4446 68.9758 7.90483 68.9758 8.45028C68.9758 8.98935 68.8873 9.44744 68.7105 9.82457C68.5336 10.2017 68.2929 10.4893 67.9882 10.6875C67.6835 10.8857 67.3383 10.9847 66.9527 10.9847C66.6714 10.9847 66.4381 10.9379 66.2528 10.8441C66.0674 10.7504 65.9182 10.6374 65.8053 10.5053C65.6945 10.3711 65.6082 10.2443 65.5464 10.125H65.4985V12.7393H64.3415ZM65.4761 8.44389C65.4761 8.76136 65.5209 9.03942 65.6104 9.27805C65.702 9.51669 65.833 9.70312 66.0035 9.83736C66.176 9.96946 66.3849 10.0355 66.6299 10.0355C66.8856 10.0355 67.0997 9.96733 67.2723 9.83097C67.4449 9.69247 67.5748 9.50391 67.6622 9.26527C67.7517 9.0245 67.7964 8.75071 67.7964 8.44389C67.7964 8.1392 67.7528 7.86861 67.6654 7.6321C67.578 7.3956 67.4481 7.21023 67.2755 7.07599C67.1029 6.94176 66.8877 6.87464 66.6299 6.87464C66.3827 6.87464 66.1729 6.93963 66.0003 7.0696C65.8277 7.19957 65.6966 7.38175 65.6072 7.61612C65.5198 7.8505 65.4761 8.12642 65.4761 8.44389ZM71.3792 10.9975C71.0681 10.9975 70.7879 10.9421 70.5386 10.8313C70.2915 10.7184 70.0954 10.5522 69.9506 10.3327C69.8078 10.1133 69.7364 9.84268 69.7364 9.52095C69.7364 9.24396 69.7876 9.01491 69.8898 8.83381C69.9921 8.6527 70.1317 8.50781 70.3085 8.39915C70.4854 8.29048 70.6846 8.20845 70.9062 8.15305C71.1299 8.09553 71.3611 8.05398 71.5997 8.02841C71.8873 7.99858 72.1206 7.97195 72.2996 7.94851C72.4786 7.92294 72.6086 7.88459 72.6895 7.83345C72.7726 7.78018 72.8142 7.69815 72.8142 7.58736V7.56818C72.8142 7.32741 72.7428 7.14098 72.6001 7.00888C72.4573 6.87678 72.2517 6.81072 71.9832 6.81072C71.6998 6.81072 71.4751 6.87251 71.3089 6.99609C71.1448 7.11967 71.034 7.26562 70.9765 7.43395L69.8962 7.28054C69.9814 6.98224 70.1221 6.73295 70.3181 6.53267C70.5141 6.33026 70.7538 6.17898 71.0372 6.07884C71.3206 5.97656 71.6338 5.92543 71.9768 5.92543C72.2133 5.92543 72.4488 5.95312 72.6832 6.00852C72.9175 6.06392 73.1317 6.15554 73.3256 6.28338C73.5194 6.40909 73.675 6.58061 73.7922 6.79794C73.9115 7.01527 73.9711 7.28693 73.9711 7.61293V10.8984H72.8589V10.2241H72.8206C72.7503 10.3604 72.6512 10.4883 72.5233 10.6076C72.3976 10.7248 72.2389 10.8196 72.0471 10.892C71.8575 10.9624 71.6349 10.9975 71.3792 10.9975ZM71.6796 10.1474C71.9118 10.1474 72.1132 10.1016 72.2836 10.0099C72.4541 9.91619 72.5851 9.79261 72.6768 9.6392C72.7705 9.4858 72.8174 9.31854 72.8174 9.13743V8.55895C72.7812 8.58878 72.7194 8.61648 72.632 8.64205C72.5468 8.66761 72.4509 8.68999 72.3444 8.70916C72.2378 8.72834 72.1324 8.74538 72.028 8.7603C71.9236 8.77521 71.833 8.788 71.7563 8.79865C71.5837 8.82209 71.4292 8.86044 71.2929 8.91371C71.1565 8.96697 71.0489 9.04155 70.9701 9.13743C70.8912 9.23118 70.8518 9.35263 70.8518 9.50178C70.8518 9.71484 70.9296 9.87571 71.0851 9.98438C71.2407 10.093 71.4388 10.1474 71.6796 10.1474ZM74.5848 6.93857V5.98935H78.8802V6.93857H77.2918V10.8984H76.1732V6.93857H74.5848ZM81.7407 10.9943C81.2613 10.9943 80.8458 10.8888 80.4942 10.6779C80.1427 10.467 79.8699 10.1719 79.676 9.79261C79.4843 9.41335 79.3884 8.97017 79.3884 8.46307C79.3884 7.95597 79.4843 7.51172 79.676 7.13033C79.8699 6.74893 80.1427 6.45277 80.4942 6.24183C80.8458 6.03089 81.2613 5.92543 81.7407 5.92543C82.2201 5.92543 82.6356 6.03089 82.9871 6.24183C83.3387 6.45277 83.6104 6.74893 83.8021 7.13033C83.996 7.51172 84.093 7.95597 84.093 8.46307C84.093 8.97017 83.996 9.41335 83.8021 9.79261C83.6104 10.1719 83.3387 10.467 82.9871 10.6779C82.6356 10.8888 82.2201 10.9943 81.7407 10.9943ZM81.7471 10.0675C82.007 10.0675 82.2243 9.99609 82.3991 9.85334C82.5738 9.70845 82.7037 9.51456 82.789 9.27166C82.8763 9.02876 82.92 8.75817 82.92 8.45987C82.92 8.15945 82.8763 7.88778 82.789 7.64489C82.7037 7.39986 82.5738 7.2049 82.3991 7.06001C82.2243 6.91513 82.007 6.84268 81.7471 6.84268C81.4807 6.84268 81.2591 6.91513 81.0823 7.06001C80.9076 7.2049 80.7765 7.39986 80.6892 7.64489C80.604 7.88778 80.5613 8.15945 80.5613 8.45987C80.5613 8.75817 80.604 9.02876 80.6892 9.27166C80.7765 9.51456 80.9076 9.70845 81.0823 9.85334C81.2591 9.99609 81.4807 10.0675 81.7471 10.0675ZM85.0749 12.7393V5.98935H86.2127V6.80114H86.2798C86.3395 6.68182 86.4237 6.55504 86.5323 6.42081C86.641 6.28445 86.788 6.16832 86.9734 6.07244C87.1587 5.97443 87.3952 5.92543 87.6829 5.92543C88.0621 5.92543 88.4041 6.02237 88.7088 6.21626C89.0156 6.40803 89.2585 6.69247 89.4375 7.0696C89.6186 7.4446 89.7092 7.90483 89.7092 8.45028C89.7092 8.98935 89.6207 9.44744 89.4439 9.82457C89.267 10.2017 89.0263 10.4893 88.7216 10.6875C88.4169 10.8857 88.0717 10.9847 87.6861 10.9847C87.4048 10.9847 87.1715 10.9379 86.9862 10.8441C86.8008 10.7504 86.6516 10.6374 86.5387 10.5053C86.4279 10.3711 86.3416 10.2443 86.2798 10.125H86.2319V12.7393H85.0749ZM86.2095 8.44389C86.2095 8.76136 86.2543 9.03942 86.3438 9.27805C86.4354 9.51669 86.5664 9.70312 86.7369 9.83736C86.9094 9.96946 87.1183 10.0355 87.3633 10.0355C87.619 10.0355 87.8331 9.96733 88.0057 9.83097C88.1783 9.69247 88.3082 9.50391 88.3956 9.26527C88.4851 9.0245 88.5298 8.75071 88.5298 8.44389C88.5298 8.1392 88.4862 7.86861 88.3988 7.6321C88.3114 7.3956 88.1815 7.21023 88.0089 7.07599C87.8363 6.94176 87.6211 6.87464 87.3633 6.87464C87.1161 6.87464 86.9062 6.93963 86.7337 7.0696C86.5611 7.19957 86.43 7.38175 86.3406 7.61612C86.2532 7.8505 86.2095 8.12642 86.2095 8.44389ZM91.8153 9.33239L93.7809 5.98935H94.9698V10.8984H93.8512V7.5522L91.892 10.8984H90.6999V5.98935H91.8153V9.33239ZM99.0599 10.8984V6.92898H98.0116C97.7453 6.92898 97.5407 6.99077 97.398 7.11435C97.2552 7.23793 97.1849 7.39134 97.1871 7.57457C97.1849 7.75781 97.252 7.90909 97.3884 8.02841C97.5248 8.14773 97.7197 8.20739 97.9733 8.20739H99.4243V9.05114H97.9733C97.5812 9.05114 97.2425 8.98935 96.9569 8.86577C96.6714 8.74219 96.452 8.56747 96.2986 8.34162C96.1452 8.11577 96.0684 7.85156 96.0684 7.54901C96.0684 7.23366 96.1462 6.95987 96.3018 6.72763C96.4594 6.49325 96.6831 6.31214 96.9729 6.1843C97.2648 6.05433 97.6111 5.98935 98.0116 5.98935H100.143V10.8984H99.0599ZM95.8895 10.8984L97.2606 8.37997H98.4015L97.0273 10.8984H95.8895ZM42.8427 20.3324L44.8082 16.9893H45.9972V21.8984H44.8786V18.5522L42.9194 21.8984H41.7273V16.9893H42.8427V20.3324ZM50.5571 18.9645V19.9137H47.9427V18.9645H50.5571ZM48.3007 16.9893V21.8984H47.1853V16.9893H48.3007ZM51.3145 16.9893V21.8984H50.2023V16.9893H51.3145ZM51.9354 17.9386V16.9893H56.2308V17.9386H54.6424V21.8984H53.5238V17.9386H51.9354ZM59.1232 21.9943C58.631 21.9943 58.206 21.892 57.848 21.6875C57.4922 21.4808 57.2184 21.1889 57.0266 20.8118C56.8349 20.4325 56.739 19.9862 56.739 19.4727C56.739 18.9677 56.8349 18.5245 57.0266 18.1431C57.2205 17.7596 57.4911 17.4613 57.8384 17.2482C58.1857 17.033 58.5938 16.9254 59.0625 16.9254C59.3651 16.9254 59.6506 16.9744 59.919 17.0724C60.1896 17.1683 60.4283 17.3175 60.6349 17.5199C60.8438 17.7223 61.0078 17.9801 61.1271 18.2933C61.2464 18.6044 61.3061 18.9751 61.3061 19.4055V19.7603H57.2823V18.9805H60.1971C60.195 18.7589 60.147 18.5618 60.0533 18.3892C59.9595 18.2145 59.8285 18.0771 59.6602 17.9769C59.494 17.8768 59.3001 17.8267 59.0785 17.8267C58.842 17.8267 58.6342 17.8842 58.4553 17.9993C58.2763 18.1122 58.1367 18.2614 58.0366 18.4467C57.9386 18.63 57.8885 18.8313 57.8864 19.0508V19.7315C57.8864 20.017 57.9386 20.2621 58.043 20.4666C58.1474 20.669 58.2933 20.8246 58.4808 20.9332C58.6683 21.0398 58.8878 21.093 59.1392 21.093C59.3075 21.093 59.4599 21.0696 59.5962 21.0227C59.7326 20.9737 59.8509 20.9023 59.951 20.8086C60.0511 20.7148 60.1268 20.5987 60.1779 20.4602L61.2582 20.5817C61.19 20.8672 61.06 21.1165 60.8683 21.3295C60.6786 21.5405 60.4357 21.7045 60.1396 21.8217C59.8434 21.9368 59.5046 21.9943 59.1232 21.9943ZM61.9461 21.8984L61.9397 20.946H62.1091C62.2369 20.946 62.3445 20.9173 62.4319 20.8597C62.5193 20.8022 62.5917 20.7063 62.6492 20.5721C62.7068 20.4357 62.7515 20.2525 62.7835 20.0224C62.8154 19.7923 62.8378 19.5057 62.8506 19.1626L62.9369 16.9893H66.5164V21.8984H65.3978V17.9386H63.9884L63.9117 19.5206C63.8925 19.9297 63.8467 20.2844 63.7742 20.5849C63.7039 20.8832 63.6038 21.1293 63.4738 21.3232C63.346 21.517 63.1851 21.6619 62.9912 21.7578C62.7973 21.8516 62.5683 21.8984 62.3041 21.8984H61.9461ZM67.3426 21.8984L67.3362 20.946H67.5056C67.6334 20.946 67.741 20.9173 67.8284 20.8597C67.9157 20.8022 67.9882 20.7063 68.0457 20.5721C68.1032 20.4357 68.148 20.2525 68.18 20.0224C68.2119 19.7923 68.2343 19.5057 68.2471 19.1626L68.3334 16.9893H71.9129V21.8984H70.7943V17.9386H69.3849L69.3081 19.5206C69.289 19.9297 69.2432 20.2844 69.1707 20.5849C69.1004 20.8832 69.0003 21.1293 68.8703 21.3232C68.7425 21.517 68.5816 21.6619 68.3877 21.7578C68.1938 21.8516 67.9648 21.8984 67.7006 21.8984H67.3426ZM75.2512 21.9943C74.759 21.9943 74.3339 21.892 73.9759 21.6875C73.6201 21.4808 73.3463 21.1889 73.1546 20.8118C72.9628 20.4325 72.8669 19.9862 72.8669 19.4727C72.8669 18.9677 72.9628 18.5245 73.1546 18.1431C73.3485 17.7596 73.6191 17.4613 73.9664 17.2482C74.3137 17.033 74.7217 16.9254 75.1904 16.9254C75.493 16.9254 75.7785 16.9744 76.047 17.0724C76.3176 17.1683 76.5562 17.3175 76.7629 17.5199C76.9717 17.7223 77.1357 17.9801 77.2551 18.2933C77.3744 18.6044 77.434 18.9751 77.434 19.4055V19.7603H73.4102V18.9805H76.325C76.3229 18.7589 76.2749 18.5618 76.1812 18.3892C76.0874 18.2145 75.9564 18.0771 75.7881 17.9769C75.6219 17.8768 75.428 17.8267 75.2064 17.8267C74.9699 17.8267 74.7622 17.8842 74.5832 17.9993C74.4042 18.1122 74.2646 18.2614 74.1645 18.4467C74.0665 18.63 74.0164 18.8313 74.0143 19.0508V19.7315C74.0143 20.017 74.0665 20.2621 74.1709 20.4666C74.2753 20.669 74.4213 20.8246 74.6088 20.9332C74.7963 21.0398 75.0157 21.093 75.2671 21.093C75.4355 21.093 75.5878 21.0696 75.7242 21.0227C75.8605 20.9737 75.9788 20.9023 76.0789 20.8086C76.1791 20.7148 76.2547 20.5987 76.3058 20.4602L77.3861 20.5817C77.3179 20.8672 77.1879 21.1165 76.9962 21.3295C76.8066 21.5405 76.5637 21.7045 76.2675 21.8217C75.9713 21.9368 75.6325 21.9943 75.2512 21.9943ZM78.4128 21.8984V16.9893H79.5698V18.9709H79.9917L81.4682 16.9893H82.8617L81.0431 19.3991L82.8809 21.8984H81.481L80.1355 20.0479H79.5698V21.8984H78.4128ZM83.2684 17.9386V16.9893H87.5638V17.9386H85.9754V21.8984H84.8568V17.9386H83.2684ZM89.2042 23.7393C89.0465 23.7393 88.9006 23.7266 88.7663 23.701C88.6342 23.6776 88.5288 23.6499 88.4499 23.6179L88.7184 22.7166C88.8867 22.7656 89.0369 22.7891 89.169 22.7869C89.3011 22.7848 89.4173 22.7433 89.5174 22.6623C89.6197 22.5835 89.706 22.4513 89.7763 22.266L89.8754 22.0007L88.0952 16.9893H89.3224L90.4538 20.6967H90.505L91.6396 16.9893H92.87L90.9045 22.4929C90.8129 22.7528 90.6914 22.9755 90.5401 23.1609C90.3888 23.3484 90.2035 23.4911 89.984 23.5891C89.7667 23.6893 89.5067 23.7393 89.2042 23.7393ZM94.9426 21.9975C94.6316 21.9975 94.3514 21.9421 94.1021 21.8313C93.8549 21.7184 93.6589 21.5522 93.514 21.3327C93.3713 21.1133 93.2999 20.8427 93.2999 20.521C93.2999 20.244 93.351 20.0149 93.4533 19.8338C93.5556 19.6527 93.6951 19.5078 93.872 19.3991C94.0488 19.2905 94.248 19.2085 94.4696 19.1531C94.6934 19.0955 94.9245 19.054 95.1632 19.0284C95.4508 18.9986 95.6841 18.9719 95.8631 18.9485C96.0421 18.9229 96.1721 18.8846 96.253 18.8335C96.3361 18.7802 96.3777 18.6982 96.3777 18.5874V18.5682C96.3777 18.3274 96.3063 18.141 96.1635 18.0089C96.0208 17.8768 95.8152 17.8107 95.5467 17.8107C95.2633 17.8107 95.0385 17.8725 94.8723 17.9961C94.7083 18.1197 94.5975 18.2656 94.54 18.4339L93.4597 18.2805C93.5449 17.9822 93.6855 17.733 93.8816 17.5327C94.0776 17.3303 94.3173 17.179 94.6007 17.0788C94.8841 16.9766 95.1973 16.9254 95.5403 16.9254C95.7768 16.9254 96.0123 16.9531 96.2466 17.0085C96.481 17.0639 96.6951 17.1555 96.889 17.2834C97.0829 17.4091 97.2385 17.5806 97.3556 17.7979C97.475 18.0153 97.5346 18.2869 97.5346 18.6129V21.8984H96.4224V21.2241H96.3841C96.3137 21.3604 96.2147 21.4883 96.0868 21.6076C95.9611 21.7248 95.8024 21.8196 95.6106 21.892C95.421 21.9624 95.1983 21.9975 94.9426 21.9975ZM95.2431 21.1474C95.4753 21.1474 95.6767 21.1016 95.8471 21.0099C96.0176 20.9162 96.1486 20.7926 96.2402 20.6392C96.334 20.4858 96.3809 20.3185 96.3809 20.1374V19.5589C96.3446 19.5888 96.2828 19.6165 96.1955 19.642C96.1103 19.6676 96.0144 19.69 95.9078 19.7092C95.8013 19.7283 95.6958 19.7454 95.5914 19.7603C95.487 19.7752 95.3965 19.788 95.3198 19.7987C95.1472 19.8221 94.9927 19.8604 94.8564 19.9137C94.72 19.967 94.6124 20.0415 94.5336 20.1374C94.4547 20.2312 94.4153 20.3526 94.4153 20.5018C94.4153 20.7148 94.4931 20.8757 94.6486 20.9844C94.8042 21.093 95.0023 21.1474 95.2431 21.1474ZM98.3592 21.8984L98.3528 20.946H98.5222C98.65 20.946 98.7576 20.9173 98.845 20.8597C98.9324 20.8022 99.0048 20.7063 99.0623 20.5721C99.1199 20.4357 99.1646 20.2525 99.1966 20.0224C99.2285 19.7923 99.2509 19.5057 99.2637 19.1626L99.35 16.9893H102.93V21.8984H101.811V17.9386H100.401L100.325 19.5206C100.306 19.9297 100.26 20.2844 100.187 20.5849C100.117 20.8832 100.017 21.1293 99.8869 21.3232C99.7591 21.517 99.5982 21.6619 99.4043 21.7578C99.2104 21.8516 98.9814 21.8984 98.7172 21.8984H98.3592ZM104.877 18.5874H106.325C106.952 18.5874 107.436 18.7397 107.779 19.0444C108.123 19.3491 108.295 19.7486 108.297 20.2429C108.295 20.5646 108.216 20.8501 108.061 21.0994C107.907 21.3487 107.684 21.5447 107.39 21.6875C107.098 21.8281 106.743 21.8984 106.325 21.8984H104.094V16.9893H105.21V20.9492H106.325C106.577 20.9492 106.783 20.8853 106.945 20.7575C107.107 20.6275 107.188 20.4613 107.188 20.2589C107.188 20.0458 107.107 19.8722 106.945 19.7379C106.783 19.6037 106.577 19.5366 106.325 19.5366H104.877V18.5874ZM112.661 18.9645V19.9137H110.046V18.9645H112.661ZM110.404 16.9893V21.8984H109.289V16.9893H110.404ZM113.418 16.9893V21.8984H112.306V16.9893H113.418ZM116.73 21.9943C116.251 21.9943 115.835 21.8888 115.483 21.6779C115.132 21.467 114.859 21.1719 114.665 20.7926C114.474 20.4134 114.378 19.9702 114.378 19.4631C114.378 18.956 114.474 18.5117 114.665 18.1303C114.859 17.7489 115.132 17.4528 115.483 17.2418C115.835 17.0309 116.251 16.9254 116.73 16.9254C117.209 16.9254 117.625 17.0309 117.976 17.2418C118.328 17.4528 118.6 17.7489 118.791 18.1303C118.985 18.5117 119.082 18.956 119.082 19.4631C119.082 19.9702 118.985 20.4134 118.791 20.7926C118.6 21.1719 118.328 21.467 117.976 21.6779C117.625 21.8888 117.209 21.9943 116.73 21.9943ZM116.736 21.0675C116.996 21.0675 117.214 20.9961 117.388 20.8533C117.563 20.7085 117.693 20.5146 117.778 20.2717C117.866 20.0288 117.909 19.7582 117.909 19.4599C117.909 19.1594 117.866 18.8878 117.778 18.6449C117.693 18.3999 117.563 18.2049 117.388 18.06C117.214 17.9151 116.996 17.8427 116.736 17.8427C116.47 17.8427 116.248 17.9151 116.072 18.06C115.897 18.2049 115.766 18.3999 115.678 18.6449C115.593 18.8878 115.551 19.1594 115.551 19.4599C115.551 19.7582 115.593 20.0288 115.678 20.2717C115.766 20.5146 115.897 20.7085 116.072 20.8533C116.248 20.9961 116.47 21.0675 116.736 21.0675ZM123.311 16.9893V17.9386H121.196V21.8984H120.064V16.9893H123.311ZM126.178 21.9943C125.699 21.9943 125.283 21.8888 124.932 21.6779C124.58 21.467 124.307 21.1719 124.114 20.7926C123.922 20.4134 123.826 19.9702 123.826 19.4631C123.826 18.956 123.922 18.5117 124.114 18.1303C124.307 17.7489 124.58 17.4528 124.932 17.2418C125.283 17.0309 125.699 16.9254 126.178 16.9254C126.658 16.9254 127.073 17.0309 127.425 17.2418C127.776 17.4528 128.048 17.7489 128.24 18.1303C128.434 18.5117 128.53 18.956 128.53 19.4631C128.53 19.9702 128.434 20.4134 128.24 20.7926C128.048 21.1719 127.776 21.467 127.425 21.6779C127.073 21.8888 126.658 21.9943 126.178 21.9943ZM126.185 21.0675C126.445 21.0675 126.662 20.9961 126.837 20.8533C127.011 20.7085 127.141 20.5146 127.226 20.2717C127.314 20.0288 127.358 19.7582 127.358 19.4599C127.358 19.1594 127.314 18.8878 127.226 18.6449C127.141 18.3999 127.011 18.2049 126.837 18.06C126.662 17.9151 126.445 17.8427 126.185 17.8427C125.918 17.8427 125.697 17.9151 125.52 18.06C125.345 18.2049 125.214 18.3999 125.127 18.6449C125.041 18.8878 124.999 19.1594 124.999 19.4599C124.999 19.7582 125.041 20.0288 125.127 20.2717C125.214 20.5146 125.345 20.7085 125.52 20.8533C125.697 20.9961 125.918 21.0675 126.185 21.0675ZM43.1399 32.9975C42.8288 32.9975 42.5487 32.9421 42.2994 32.8313C42.0522 32.7184 41.8562 32.5522 41.7113 32.3327C41.5685 32.1133 41.4972 31.8427 41.4972 31.521C41.4972 31.244 41.5483 31.0149 41.6506 30.8338C41.7528 30.6527 41.8924 30.5078 42.0692 30.3991C42.2461 30.2905 42.4453 30.2085 42.6669 30.1531C42.8906 30.0955 43.1218 30.054 43.3604 30.0284C43.6481 29.9986 43.8814 29.9719 44.0604 29.9485C44.2393 29.9229 44.3693 29.8846 44.4503 29.8335C44.5334 29.7802 44.5749 29.6982 44.5749 29.5874V29.5682C44.5749 29.3274 44.5036 29.141 44.3608 29.0089C44.218 28.8768 44.0124 28.8107 43.744 28.8107C43.4606 28.8107 43.2358 28.8725 43.0696 28.9961C42.9055 29.1197 42.7947 29.2656 42.7372 29.4339L41.657 29.2805C41.7422 28.9822 41.8828 28.733 42.0788 28.5327C42.2749 28.3303 42.5146 28.179 42.7979 28.0788C43.0813 27.9766 43.3945 27.9254 43.7376 27.9254C43.9741 27.9254 44.2095 27.9531 44.4439 28.0085C44.6783 28.0639 44.8924 28.1555 45.0863 28.2834C45.2802 28.4091 45.4357 28.5806 45.5529 28.7979C45.6722 29.0153 45.7319 29.2869 45.7319 29.6129V32.8984H44.6197V32.2241H44.5813C44.511 32.3604 44.4119 32.4883 44.2841 32.6076C44.1584 32.7248 43.9996 32.8196 43.8079 32.892C43.6183 32.9624 43.3956 32.9975 43.1399 32.9975ZM43.4403 32.1474C43.6726 32.1474 43.8739 32.1016 44.0444 32.0099C44.2148 31.9162 44.3459 31.7926 44.4375 31.6392C44.5312 31.4858 44.5781 31.3185 44.5781 31.1374V30.5589C44.5419 30.5888 44.4801 30.6165 44.3928 30.642C44.3075 30.6676 44.2116 30.69 44.1051 30.7092C43.9986 30.7283 43.8931 30.7454 43.7887 30.7603C43.6843 30.7752 43.5938 30.788 43.517 30.7987C43.3445 30.8221 43.19 30.8604 43.0536 30.9137C42.9173 30.967 42.8097 31.0415 42.7308 31.1374C42.652 31.2312 42.6126 31.3526 42.6126 31.5018C42.6126 31.7148 42.6903 31.8757 42.8459 31.9844C43.0014 32.093 43.1996 32.1474 43.4403 32.1474ZM50.267 29.9645V30.9137H47.6527V29.9645H50.267ZM48.0107 27.9893V32.8984H46.8952V27.9893H48.0107ZM51.0245 27.9893V32.8984H49.9123V27.9893H51.0245ZM53.6077 32.9975C53.2966 32.9975 53.0164 32.9421 52.7671 32.8313C52.52 32.7184 52.324 32.5522 52.1791 32.3327C52.0363 32.1133 51.9649 31.8427 51.9649 31.521C51.9649 31.244 52.0161 31.0149 52.1183 30.8338C52.2206 30.6527 52.3602 30.5078 52.537 30.3991C52.7139 30.2905 52.9131 30.2085 53.1347 30.1531C53.3584 30.0955 53.5896 30.054 53.8282 30.0284C54.1159 29.9986 54.3492 29.9719 54.5281 29.9485C54.7071 29.9229 54.8371 29.8846 54.9181 29.8335C55.0012 29.7802 55.0427 29.6982 55.0427 29.5874V29.5682C55.0427 29.3274 54.9713 29.141 54.8286 29.0089C54.6858 28.8768 54.4802 28.8107 54.2117 28.8107C53.9284 28.8107 53.7036 28.8725 53.5374 28.9961C53.3733 29.1197 53.2625 29.2656 53.205 29.4339L52.1247 29.2805C52.21 28.9822 52.3506 28.733 52.5466 28.5327C52.7426 28.3303 52.9823 28.179 53.2657 28.0788C53.5491 27.9766 53.8623 27.9254 54.2053 27.9254C54.4419 27.9254 54.6773 27.9531 54.9117 28.0085C55.146 28.0639 55.3602 28.1555 55.5541 28.2834C55.748 28.4091 55.9035 28.5806 56.0207 28.7979C56.14 29.0153 56.1997 29.2869 56.1997 29.6129V32.8984H55.0874V32.2241H55.0491C54.9788 32.3604 54.8797 32.4883 54.7519 32.6076C54.6262 32.7248 54.4674 32.8196 54.2757 32.892C54.086 32.9624 53.8634 32.9975 53.6077 32.9975ZM53.9081 32.1474C54.1404 32.1474 54.3417 32.1016 54.5122 32.0099C54.6826 31.9162 54.8137 31.7926 54.9053 31.6392C54.999 31.4858 55.0459 31.3185 55.0459 31.1374V30.5589C55.0097 30.5888 54.9479 30.6165 54.8605 30.642C54.7753 30.6676 54.6794 30.69 54.5729 30.7092C54.4664 30.7283 54.3609 30.7454 54.2565 30.7603C54.1521 30.7752 54.0615 30.788 53.9848 30.7987C53.8122 30.8221 53.6578 30.8604 53.5214 30.9137C53.385 30.967 53.2774 31.0415 53.1986 31.1374C53.1198 31.2312 53.0803 31.3526 53.0803 31.5018C53.0803 31.7148 53.1581 31.8757 53.3137 31.9844C53.4692 32.093 53.6673 32.1474 53.9081 32.1474ZM57.0242 32.8984L57.0178 31.946H57.1872C57.3151 31.946 57.4227 31.9173 57.51 31.8597C57.5974 31.8022 57.6698 31.7063 57.7274 31.5721C57.7849 31.4357 57.8296 31.2525 57.8616 31.0224C57.8936 30.7923 57.9159 30.5057 57.9287 30.1626L58.015 27.9893H61.5945V32.8984H60.4759V28.9386H59.0665L58.9898 30.5206C58.9706 30.9297 58.9248 31.2844 58.8524 31.5849C58.782 31.8832 58.6819 32.1293 58.5519 32.3232C58.4241 32.517 58.2632 32.6619 58.0693 32.7578C57.8754 32.8516 57.6464 32.8984 57.3822 32.8984H57.0242ZM63.8749 31.3324L65.8405 27.9893H67.0294V32.8984H65.9108V29.5522L63.9516 32.8984H62.7595V27.9893H63.8749V31.3324ZM67.9458 31.5529H69.0932C69.1039 31.7362 69.1859 31.8778 69.3393 31.978C69.4927 32.0781 69.6919 32.1282 69.937 32.1282C70.1863 32.1282 70.3961 32.0739 70.5666 31.9652C70.7392 31.8544 70.8255 31.6871 70.8255 31.4634C70.8255 31.3313 70.7924 31.2152 70.7264 31.1151C70.6603 31.0128 70.5676 30.9339 70.4483 30.8786C70.329 30.8232 70.1884 30.7955 70.0265 30.7955H69.2754V29.9741H70.0265C70.2672 29.9741 70.4494 29.9187 70.573 29.8079C70.6987 29.6971 70.7615 29.5575 70.7615 29.3892C70.7615 29.2081 70.6955 29.0611 70.5634 28.9482C70.4334 28.8352 70.2534 28.7788 70.0233 28.7788C69.7931 28.7788 69.6014 28.831 69.448 28.9354C69.2967 29.0398 69.2179 29.174 69.2115 29.3381H68.0705C68.0748 29.0526 68.16 28.8043 68.3262 28.5934C68.4945 28.3825 68.7203 28.2184 69.0037 28.1012C69.2892 27.984 69.611 27.9254 69.9689 27.9254C70.3525 27.9254 70.6838 27.983 70.9629 28.098C71.242 28.2131 71.4572 28.3739 71.6085 28.5806C71.7598 28.7852 71.8354 29.0259 71.8354 29.3029C71.8354 29.5692 71.7523 29.7898 71.5861 29.9645C71.4199 30.1371 71.1962 30.2607 70.915 30.3352V30.3864C71.1088 30.397 71.2836 30.4524 71.4391 30.5526C71.5946 30.6506 71.7182 30.7837 71.8098 30.9521C71.9015 31.1204 71.9473 31.3153 71.9473 31.5369C71.9473 31.8374 71.861 32.0973 71.6884 32.3168C71.5158 32.5341 71.2782 32.7013 70.9757 32.8185C70.6752 32.9357 70.3311 32.9943 69.9434 32.9943C69.5662 32.9943 69.2285 32.9379 68.9302 32.8249C68.6341 32.7099 68.3986 32.5447 68.2239 32.3295C68.0492 32.1143 67.9565 31.8555 67.9458 31.5529ZM74.2708 32.9975C73.9597 32.9975 73.6795 32.9421 73.4302 32.8313C73.1831 32.7184 72.987 32.5522 72.8422 32.3327C72.6994 32.1133 72.628 31.8427 72.628 31.521C72.628 31.244 72.6792 31.0149 72.7814 30.8338C72.8837 30.6527 73.0233 30.5078 73.2001 30.3991C73.377 30.2905 73.5762 30.2085 73.7978 30.1531C74.0215 30.0955 74.2527 30.054 74.4913 30.0284C74.7789 29.9986 75.0123 29.9719 75.1912 29.9485C75.3702 29.9229 75.5002 29.8846 75.5811 29.8335C75.6642 29.7802 75.7058 29.6982 75.7058 29.5874V29.5682C75.7058 29.3274 75.6344 29.141 75.4917 29.0089C75.3489 28.8768 75.1433 28.8107 74.8748 28.8107C74.5914 28.8107 74.3667 28.8725 74.2005 28.9961C74.0364 29.1197 73.9256 29.2656 73.8681 29.4339L72.7878 29.2805C72.873 28.9822 73.0137 28.733 73.2097 28.5327C73.4057 28.3303 73.6454 28.179 73.9288 28.0788C74.2122 27.9766 74.5254 27.9254 74.8684 27.9254C75.1049 27.9254 75.3404 27.9531 75.5748 28.0085C75.8091 28.0639 76.0233 28.1555 76.2172 28.2834C76.411 28.4091 76.5666 28.5806 76.6838 28.7979C76.8031 29.0153 76.8627 29.2869 76.8627 29.6129V32.8984H75.7505V32.2241H75.7122C75.6419 32.3604 75.5428 32.4883 75.415 32.6076C75.2892 32.7248 75.1305 32.8196 74.9387 32.892C74.7491 32.9624 74.5265 32.9975 74.2708 32.9975ZM74.5712 32.1474C74.8034 32.1474 75.0048 32.1016 75.1752 32.0099C75.3457 31.9162 75.4767 31.7926 75.5684 31.6392C75.6621 31.4858 75.709 31.3185 75.709 31.1374V30.5589C75.6728 30.5888 75.611 30.6165 75.5236 30.642C75.4384 30.6676 75.3425 30.69 75.236 30.7092C75.1294 30.7283 75.024 30.7454 74.9196 30.7603C74.8152 30.7752 74.7246 30.788 74.6479 30.7987C74.4753 30.8221 74.3208 30.8604 74.1845 30.9137C74.0481 30.967 73.9405 31.0415 73.8617 31.1374C73.7828 31.2312 73.7434 31.3526 73.7434 31.5018C73.7434 31.7148 73.8212 31.8757 73.9767 31.9844C74.1323 32.093 74.3304 32.1474 74.5712 32.1474ZM79.8239 34.3239V31.946H80.2138C80.3182 31.8651 80.4055 31.7553 80.4759 31.6168C80.5462 31.4762 80.6037 31.3111 80.6484 31.1214C80.6953 30.9297 80.7337 30.7156 80.7635 30.479C80.7933 30.2404 80.82 29.9837 80.8434 29.7088L80.984 27.9893H84.5316V31.946H85.2923V34.3239H84.1737V32.8984H80.9616V34.3239H79.8239ZM81.4027 31.946H83.4258V28.9226H81.9876L81.9109 29.7088C81.8683 30.2287 81.8118 30.674 81.7415 31.0447C81.6712 31.4155 81.5582 31.7159 81.4027 31.946ZM87.5686 32.9975C87.2575 32.9975 86.9774 32.9421 86.7281 32.8313C86.4809 32.7184 86.2849 32.5522 86.14 32.3327C85.9972 32.1133 85.9259 31.8427 85.9259 31.521C85.9259 31.244 85.977 31.0149 86.0793 30.8338C86.1816 30.6527 86.3211 30.5078 86.498 30.3991C86.6748 30.2905 86.874 30.2085 87.0956 30.1531C87.3193 30.0955 87.5505 30.054 87.7892 30.0284C88.0768 29.9986 88.3101 29.9719 88.4891 29.9485C88.6681 29.9229 88.798 29.8846 88.879 29.8335C88.9621 29.7802 89.0036 29.6982 89.0036 29.5874V29.5682C89.0036 29.3274 88.9323 29.141 88.7895 29.0089C88.6468 28.8768 88.4411 28.8107 88.1727 28.8107C87.8893 28.8107 87.6645 28.8725 87.4983 28.9961C87.3343 29.1197 87.2235 29.2656 87.1659 29.4339L86.0857 29.2805C86.1709 28.9822 86.3115 28.733 86.5075 28.5327C86.7036 28.3303 86.9433 28.179 87.2267 28.0788C87.51 27.9766 87.8232 27.9254 88.1663 27.9254C88.4028 27.9254 88.6382 27.9531 88.8726 28.0085C89.107 28.0639 89.3211 28.1555 89.515 28.2834C89.7089 28.4091 89.8644 28.5806 89.9816 28.7979C90.1009 29.0153 90.1606 29.2869 90.1606 29.6129V32.8984H89.0484V32.2241H89.01C88.9397 32.3604 88.8406 32.4883 88.7128 32.6076C88.5871 32.7248 88.4284 32.8196 88.2366 32.892C88.047 32.9624 87.8243 32.9975 87.5686 32.9975ZM87.8691 32.1474C88.1013 32.1474 88.3026 32.1016 88.4731 32.0099C88.6436 31.9162 88.7746 31.7926 88.8662 31.6392C88.96 31.4858 89.0068 31.3185 89.0068 31.1374V30.5589C88.9706 30.5888 88.9088 30.6165 88.8215 30.642C88.7362 30.6676 88.6404 30.69 88.5338 30.7092C88.4273 30.7283 88.3218 30.7454 88.2174 30.7603C88.113 30.7752 88.0225 30.788 87.9458 30.7987C87.7732 30.8221 87.6187 30.8604 87.4823 30.9137C87.346 30.967 87.2384 31.0415 87.1595 31.1374C87.0807 31.2312 87.0413 31.3526 87.0413 31.5018C87.0413 31.7148 87.1191 31.8757 87.2746 31.9844C87.4301 32.093 87.6283 32.1474 87.8691 32.1474ZM94.6958 29.9645V30.9137H92.0814V29.9645H94.6958ZM92.4394 27.9893V32.8984H91.324V27.9893H92.4394ZM95.4532 27.9893V32.8984H94.341V27.9893H95.4532ZM99.9956 29.9645V30.9137H97.3812V29.9645H99.9956ZM97.7392 27.9893V32.8984H96.6238V27.9893H97.7392ZM100.753 27.9893V32.8984H99.6408V27.9893H100.753ZM102.707 29.5874H104.154C104.781 29.5874 105.266 29.7397 105.609 30.0444C105.952 30.3491 106.124 30.7486 106.126 31.2429C106.124 31.5646 106.045 31.8501 105.89 32.0994C105.736 32.3487 105.513 32.5447 105.219 32.6875C104.927 32.8281 104.572 32.8984 104.154 32.8984H101.924V27.9893H103.039V31.9492H104.154C104.406 31.9492 104.612 31.8853 104.774 31.7575C104.936 31.6275 105.017 31.4613 105.017 31.2589C105.017 31.0458 104.936 30.8722 104.774 30.7379C104.612 30.6037 104.406 30.5366 104.154 30.5366H102.707V29.5874ZM106.737 32.8984V27.9893H107.894V32.8984H106.737ZM110.033 27.9893L111.023 29.8015L112.03 27.9893H113.254L111.775 30.4439L113.28 32.8984H112.062L111.023 31.131L109.994 32.8984H108.767L110.263 30.4439L108.805 27.9893H110.033Z" fill="#05193B"/>
</svg>
